<svg width="50" height="50" viewBox="0 0 50 50" fill="none" xmlns="http://www.w3.org/2000/svg">
<rect width="50" height="50" rx="3" fill="#B0413E"/>
<path d="M13 45C11.9 45 10.9583 44.6083 10.175 43.825C9.39167 43.0417 9 42.1 9 41V9C9 7.9 9.39167 6.95833 10.175 6.175C10.9583 5.39167 11.9 5 13 5H29L41 17V41C41 42.1 40.6083 43.0417 39.825 43.825C39.0417 44.6083 38.1 45 37 45H13ZM27 19H37L27 9V19Z" fill="#2589BD"/>
<path d="M15.125 40.25C14.2656 40.25 13.5299 39.944 12.918 39.332C12.306 38.7201 12 37.9844 12 37.125V12.125C12 11.2656 12.306 10.5299 12.918 9.91797C13.5299 9.30599 14.2656 9 15.125 9H27.625L37 18.375V37.125C37 37.9844 36.694 38.7201 36.082 39.332C35.4701 39.944 34.7344 40.25 33.875 40.25H15.125ZM26.0625 19.9375H33.875L26.0625 12.125V19.9375Z" fill="#292F36"/>
<path d="M34.9999 20.5L25.5 11L25.5001 20.5H34.9999Z" fill="#C9C9CB"/>
<path d="M28.5 8L25.5 11L35 20.5L38 17.5L28.5 8Z" fill="#2589BD"/>
</svg>
